<?xml version="1.0" encoding="utf-8"?>
<!-- Generator: Adobe Illustrator 16.0.0, SVG Export Plug-In . SVG Version: 6.00 Build 0)  -->
<!DOCTYPE svg PUBLIC "-//W3C//DTD SVG 1.1//EN" "http://www.w3.org/Graphics/SVG/1.1/DTD/svg11.dtd">
<svg version="1.1" id="Layer_1" xmlns="http://www.w3.org/2000/svg" xmlns:xlink="http://www.w3.org/1999/xlink" x="0px" y="0px"
	 width="623px" height="181.5px" viewBox="0 0 623 181.5" enable-background="new 0 0 623 181.5" xml:space="preserve">
<path id="a" d="M554.565,175.998c-3.518,0-7.049-0.229-10.598-0.684s-6.934-1.188-10.155-2.197c-3.223-1.01-6.233-2.328-9.032-3.955
	c-2.8-1.627-5.227-3.646-7.275-6.055c-2.05-2.409-3.662-5.24-4.834-8.496s-1.758-6.998-1.758-11.23
	c0-5.664,1.074-10.514,3.223-14.551c2.149-4.037,5.029-7.389,8.645-10.059c3.611-2.67,7.764-4.722,12.451-6.152
	c4.687-1.432,9.535-2.344,14.551-2.734v-6.738c0-2.539-0.326-4.557-0.979-6.055c-0.648-1.496-1.479-2.619-2.488-3.369
	c-1.012-0.748-2.115-1.236-3.32-1.465s-2.359-0.342-3.467-0.342c-1.305,0-2.688,0.195-4.15,0.586s-2.881,0.863-4.248,1.416
	c-1.367,0.555-2.67,1.156-3.906,1.807c-1.234,0.651-2.277,1.237-3.125,1.758c-0.391,0.263-0.748,0.488-1.072,0.686
	c-0.326,0.196-0.65,0.293-0.979,0.293c-0.586,0-1.139-0.423-1.66-1.271l-3.318-5.271c-0.326-0.455-0.488-0.943-0.488-1.465
	c0-0.521,0.211-0.977,0.635-1.367s0.83-0.716,1.223-0.977c2.146-1.497,4.883-3.027,8.201-4.59c3.32-1.563,7.049-2.962,11.184-4.199
	c4.135-1.236,8.607-2.246,13.428-3.027c4.819-0.781,9.799-1.172,14.941-1.172c4.883,0,9.65,0.163,14.307,0.488
	c4.654,0.326,9.049,1.025,13.184,2.1c4.137,1.075,7.91,2.604,11.328,4.59c3.418,1.986,6.381,4.606,8.889,7.861
	c2.506,3.256,4.441,7.26,5.811,12.012c1.367,4.753,2.051,10.449,2.051,17.09v43.557c0,2.146-0.193,4.053-0.586,5.713
	c-0.391,1.66-1.139,3.043-2.246,4.15c-1.105,1.105-2.637,1.938-4.59,2.488s-4.492,0.83-7.617,0.83L554.565,175.998L554.565,175.998z
	 M549.78,122.287c-4.688,0-8.627,0.586-11.816,1.758c-3.188,1.172-5.762,2.734-7.715,4.688c-1.953,1.955-3.354,4.217-4.199,6.787
	c-0.845,2.572-1.27,5.227-1.27,7.959c0,2.734,0.424,5.322,1.27,7.766c0.848,2.441,2.246,4.572,4.199,6.396
	c1.953,1.822,4.525,3.256,7.715,4.297c3.19,1.041,7.129,1.562,11.816,1.562V122.287z"/>
</svg>
