<?xml version="1.0" encoding="utf-8"?>
<!-- Generator: Adobe Illustrator 16.0.0, SVG Export Plug-In . SVG Version: 6.00 Build 0)  -->
<!DOCTYPE svg PUBLIC "-//W3C//DTD SVG 1.1//EN" "http://www.w3.org/Graphics/SVG/1.1/DTD/svg11.dtd">
<svg version="1.1" id="Layer_1" xmlns="http://www.w3.org/2000/svg" xmlns:xlink="http://www.w3.org/1999/xlink" x="0px" y="0px"
	 width="623px" height="181.5px" viewBox="0 0 623 181.5" enable-background="new 0 0 623 181.5" xml:space="preserve">
<path d="M145.776,57.053c2.93,2.93,6.38,5.258,10.352,6.982c3.971,1.726,8.203,2.588,12.695,2.588c4.427,0,8.609-0.862,12.549-2.588
	c3.938-1.725,7.373-4.053,10.303-6.982s5.257-6.363,6.982-10.303c1.725-3.938,2.588-8.121,2.588-12.549
	c0-4.492-0.863-8.724-2.588-12.695c-1.726-3.971-4.053-7.422-6.982-10.352s-6.364-5.257-10.303-6.982
	c-3.939-1.725-8.122-2.588-12.549-2.588c-4.492,0-8.725,0.863-12.695,2.588c-3.972,1.726-7.422,4.053-10.352,6.982
	s-5.258,6.381-6.982,10.352c-1.726,3.972-2.588,8.203-2.588,12.695c0,4.428,0.862,8.61,2.588,12.549
	C140.518,50.689,142.846,54.123,145.776,57.053z"/>
<path d="M436.987,57.053c2.93,2.93,6.381,5.258,10.352,6.982c3.971,1.726,8.203,2.588,12.695,2.588
	c4.428,0,8.609-0.862,12.549-2.588c3.939-1.725,7.373-4.053,10.303-6.982s5.258-6.363,6.982-10.303
	c1.725-3.938,2.588-8.121,2.588-12.549c0-4.492-0.863-8.724-2.588-12.695c-1.725-3.971-4.053-7.422-6.982-10.352
	s-6.363-5.257-10.303-6.982c-3.939-1.725-8.121-2.588-12.549-2.588c-4.492,0-8.725,0.863-12.695,2.588
	c-3.971,1.726-7.422,4.053-10.352,6.982s-5.258,6.381-6.982,10.352c-1.725,3.972-2.588,8.203-2.588,12.695
	c0,4.428,0.863,8.61,2.588,12.549C431.729,50.689,434.058,54.123,436.987,57.053z"/>
</svg>
