<?xml version="1.0" encoding="utf-8"?>
<!-- Generator: Adobe Illustrator 16.0.0, SVG Export Plug-In . SVG Version: 6.00 Build 0)  -->
<!DOCTYPE svg PUBLIC "-//W3C//DTD SVG 1.1//EN" "http://www.w3.org/Graphics/SVG/1.1/DTD/svg11.dtd">
<svg version="1.1" id="Layer_1" xmlns="http://www.w3.org/2000/svg" xmlns:xlink="http://www.w3.org/1999/xlink" x="0px" y="0px"
	 width="288px" height="288px" viewBox="0 0 288 288" enable-background="new 0 0 288 288" xml:space="preserve">
<g>
	<path d="M181.912,90.54H59.706c-4.971,0-9-4.029-9-9s4.029-9,9-9h122.206c4.971,0,9,4.029,9,9S186.883,90.54,181.912,90.54z"/>
	<path d="M182.412,133.539H60.206c-4.971,0-9-4.029-9-9s4.029-9,9-9h122.206c4.971,0,9,4.029,9,9S187.383,133.539,182.412,133.539z"
		/>
	<path d="M182.912,176.539H60.706c-4.971,0-9-4.029-9-9s4.029-9,9-9h122.206c4.971,0,9,4.029,9,9S187.883,176.539,182.912,176.539z"
		/>
</g>
<path d="M280.096,208.101c-6.834-6.834-17.914-6.834-24.748,0l-16.253,16.253V21.381c0-9.665-7.835-17.5-17.5-17.5h-200
	c-9.665,0-17.5,7.835-17.5,17.5v245.238c0,9.665,7.835,17.5,17.5,17.5h142.509c9.665,0,17.5-7.835,17.5-17.5s-7.835-17.5-17.5-17.5
	H39.095V38.881h165v185.043l-15.823-15.823c-6.834-6.834-17.914-6.834-24.748,0c-6.835,6.834-6.835,17.914,0,24.748l43.575,43.575
	c3.146,4.644,8.465,7.695,14.496,7.695c4.938,0,9.391-2.054,12.572-5.344c0.006-0.005,0.012-0.01,0.017-0.015l45.912-45.912
	C286.931,226.015,286.931,214.935,280.096,208.101z"/>
</svg>
