<?xml version="1.0" encoding="utf-8"?>
<!-- Generator: Adobe Illustrator 16.0.0, SVG Export Plug-In . SVG Version: 6.00 Build 0)  -->
<!DOCTYPE svg PUBLIC "-//W3C//DTD SVG 1.1//EN" "http://www.w3.org/Graphics/SVG/1.1/DTD/svg11.dtd">
<svg version="1.1" id="Layer_1" xmlns="http://www.w3.org/2000/svg" xmlns:xlink="http://www.w3.org/1999/xlink" x="0px" y="0px"
	 width="93.6px" height="93.6px" viewBox="0 0 93.6 93.6" enable-background="new 0 0 93.6 93.6" xml:space="preserve">
<path stroke="#FFFFFF" stroke-width="2" stroke-miterlimit="10" d="M46.8,3.521c-23.901,0-43.277,19.376-43.277,43.277
	S22.898,90.078,46.8,90.078c23.902,0,43.277-19.378,43.277-43.279S70.702,3.521,46.8,3.521z M63.167,71.165h-2.531V46.204
	c0-4.43-1.418-7.951-4.254-10.564s-6.48-3.92-10.934-3.92c-4.125,0-7.57,1.371-10.336,4.113s-4.148,6.082-4.148,10.02
	c0,2.391,0.416,4.535,1.248,6.434s1.963,3.422,3.393,4.57s3.029,2.021,4.799,2.619s3.639,0.896,5.607,0.896
	c2.672,0,5.215-0.621,7.629-1.863v2.672c-2.531,1.055-5.086,1.582-7.664,1.582c-2.32,0-4.523-0.357-6.609-1.072
	s-3.949-1.758-5.59-3.129s-2.941-3.152-3.902-5.344s-1.441-4.646-1.441-7.365c0-4.617,1.635-8.549,4.904-11.795
	s7.307-4.869,12.111-4.869c3.375,0,6.398,0.686,9.07,2.057s4.781,3.357,6.328,5.959s2.32,5.602,2.32,9V71.165z M73.292,71.165
	h-2.531V46.204c0-4.781-1.113-9.053-3.34-12.814s-5.262-6.668-9.105-8.719s-8.133-3.076-12.867-3.076
	c-4.547,0-8.707,1.09-12.48,3.27s-6.738,5.127-8.895,8.842s-3.234,7.764-3.234,12.146c0,2.883,0.463,5.619,1.389,8.209
	s2.191,4.852,3.797,6.785s3.457,3.604,5.555,5.01s4.359,2.473,6.785,3.199s4.893,1.09,7.4,1.09c2.766,0,5.391-0.527,7.875-1.582
	v2.602c-2.602,0.914-5.273,1.371-8.016,1.371c-2.836,0-5.596-0.399-8.279-1.195c-2.684-0.797-5.168-1.975-7.453-3.533
	s-4.295-3.398-6.029-5.52s-3.094-4.6-4.078-7.436s-1.477-5.836-1.477-9c0-3.633,0.686-7.096,2.057-10.389s3.246-6.141,5.625-8.543
	s5.262-4.312,8.648-5.73s6.99-2.127,10.811-2.127c3.891,0,7.547,0.656,10.969,1.969s6.375,3.135,8.859,5.467
	s4.441,5.197,5.871,8.596s2.145,7.102,2.145,11.109V71.165z"/>
</svg>
