<?xml version="1.0" encoding="utf-8"?>
<!-- Generator: Adobe Illustrator 16.0.0, SVG Export Plug-In . SVG Version: 6.00 Build 0)  -->
<!DOCTYPE svg PUBLIC "-//W3C//DTD SVG 1.1//EN" "http://www.w3.org/Graphics/SVG/1.1/DTD/svg11.dtd">
<svg version="1.1" id="Layer_1" xmlns="http://www.w3.org/2000/svg" xmlns:xlink="http://www.w3.org/1999/xlink" x="0px" y="0px"
	 width="432px" height="432px" viewBox="0 0 432 432" enable-background="new 0 0 432 432" xml:space="preserve">
<filter  id="AI_GaussianBlur_7">
	<feGaussianBlur  stdDeviation="7"></feGaussianBlur>
</filter>
<filter  id="AI_GaussianBlur_4">
	<feGaussianBlur  stdDeviation="4"></feGaussianBlur>
</filter>
<g>
	
		<radialGradient id="SVGID_1_" cx="38.2524" cy="262.0918" r="3.999" gradientTransform="matrix(0.9545 0 0 -0.9545 65.2291 468.0647)" gradientUnits="userSpaceOnUse">
		<stop  offset="0" style="stop-color:#CAE095"/>
		<stop  offset="0.0239" style="stop-color:#AFC082"/>
		<stop  offset="0.0943" style="stop-color:#79815A"/>
		<stop  offset="0.1703" style="stop-color:#50543B"/>
		<stop  offset="0.2502" style="stop-color:#333524"/>
		<stop  offset="0.3348" style="stop-color:#1C1D0F"/>
		<stop  offset="0.4256" style="stop-color:#030300"/>
		<stop  offset="0.525" style="stop-color:#000000"/>
		<stop  offset="0.6374" style="stop-color:#000000"/>
		<stop  offset="0.7736" style="stop-color:#000000"/>
		<stop  offset="1" style="stop-color:#000000"/>
	</radialGradient>
	<circle fill="url(#SVGID_1_)" cx="101.741" cy="217.908" r="3.822"/>
	
		<radialGradient id="SVGID_2_" cx="42.1465" cy="265.125" r="30.0315" gradientTransform="matrix(0.9545 0 0 -0.9545 65.2291 468.0647)" gradientUnits="userSpaceOnUse">
		<stop  offset="0.05" style="stop-color:#000000"/>
		<stop  offset="0.1463" style="stop-color:#000000"/>
		<stop  offset="0.2987" style="stop-color:#162718"/>
		<stop  offset="0.4406" style="stop-color:#2B422D"/>
		<stop  offset="0.5675" style="stop-color:#3B583D"/>
		<stop  offset="0.675" style="stop-color:#446747"/>
		<stop  offset="0.75" style="stop-color:#486C4A"/>
		<stop  offset="0.7873" style="stop-color:#839472"/>
		<stop  offset="0.8213" style="stop-color:#BABE9A"/>
		<stop  offset="0.8464" style="stop-color:#E0DDB8"/>
		<stop  offset="0.86" style="stop-color:#F2EDC7"/>
		<stop  offset="0.8801" style="stop-color:#EAE4C0"/>
		<stop  offset="0.898" style="stop-color:#D8D1B0"/>
		<stop  offset="0.9151" style="stop-color:#BCB599"/>
		<stop  offset="0.9317" style="stop-color:#9A917B"/>
		<stop  offset="0.9479" style="stop-color:#736A5A"/>
		<stop  offset="0.9639" style="stop-color:#4C453A"/>
		<stop  offset="0.9796" style="stop-color:#251F18"/>
		<stop  offset="0.9948" style="stop-color:#000000"/>
		<stop  offset="1" style="stop-color:#000000"/>
	</radialGradient>
	<circle opacity="0.2" fill="url(#SVGID_2_)" enable-background="new    " cx="105.458" cy="215.003" r="28.665"/>
	<line fill="none" x1="176.105" y1="159.808" x2="101.74" y2="217.908"/>
	
		<radialGradient id="SVGID_3_" cx="116.1611" cy="322.9512" r="80.0828" gradientTransform="matrix(0.9545 0 0 -0.9545 65.2291 468.0647)" gradientUnits="userSpaceOnUse">
		<stop  offset="0" style="stop-color:#AFAFB0"/>
		<stop  offset="0.73" style="stop-color:#DCB5A9"/>
		<stop  offset="1" style="stop-color:#AFAFB0"/>
	</radialGradient>
	<circle opacity="0.15" fill="url(#SVGID_3_)" enable-background="new    " cx="176.105" cy="159.808" r="76.439"/>
	
		<radialGradient id="SVGID_4_" cx="116.1616" cy="322.9512" r="40.042" gradientTransform="matrix(0.9545 0 0 -0.9545 65.2291 468.0647)" gradientUnits="userSpaceOnUse">
		<stop  offset="0.15" style="stop-color:#FFFFFF"/>
		<stop  offset="0.2121" style="stop-color:#F3E3E2"/>
		<stop  offset="0.3162" style="stop-color:#E6C1C1"/>
		<stop  offset="0.3991" style="stop-color:#DFACAF"/>
		<stop  offset="0.45" style="stop-color:#DCA5A9"/>
		<stop  offset="0.5662" style="stop-color:#CCA9AC"/>
		<stop  offset="0.7419" style="stop-color:#B7ADAF"/>
		<stop  offset="0.85" style="stop-color:#AFAFB0"/>
		<stop  offset="0.8609" style="stop-color:#B3B0B1"/>
		<stop  offset="0.8722" style="stop-color:#BEB3B4"/>
		<stop  offset="0.8837" style="stop-color:#D0B7B9"/>
		<stop  offset="0.8952" style="stop-color:#E9BFBF"/>
		<stop  offset="0.9" style="stop-color:#F6C3C3"/>
		<stop  offset="0.9154" style="stop-color:#DEBBBC"/>
		<stop  offset="0.9335" style="stop-color:#CAB6B7"/>
		<stop  offset="0.9527" style="stop-color:#BBB2B3"/>
		<stop  offset="0.9738" style="stop-color:#B2AFB1"/>
		<stop  offset="1" style="stop-color:#AFAFB0"/>
	</radialGradient>
	<circle opacity="0.72" fill="url(#SVGID_4_)" enable-background="new    " cx="176.105" cy="159.808" r="38.22"/>
	
		<polyline opacity="0.03" fill="none" stroke="#FFFFFF" stroke-width="2" stroke-miterlimit="10" enable-background="new    " points="
		176.105,159.808 204.244,236.919 176.105,159.808 147.966,82.697 176.105,159.808 98.994,187.947 176.105,159.808 253.216,131.668 
		176.105,159.808 256.794,172.13 176.105,159.808 95.416,147.487 176.105,159.808 163.783,240.497 176.105,159.808 188.427,79.119 
		176.105,159.808 233.38,201.593 176.105,159.808 118.83,118.022 176.105,159.808 134.319,217.082 176.105,159.808 217.891,102.533 
		176.105,159.808 176.355,237.646 176.105,159.808 175.855,81.971 176.105,159.808 98.268,160.059 176.105,159.808 253.941,159.557 
		176.105,159.808 214.34,223.343 176.105,159.808 137.87,96.273 176.105,159.808 112.571,198.044 176.105,159.808 239.641,121.573 
		176.105,159.808 252.489,164.068 176.105,159.808 99.721,155.548 176.105,159.808 171.846,236.191 176.105,159.808 180.364,83.424 
		176.105,159.808 200.862,218.193 176.105,159.808 151.348,101.422 176.105,159.808 117.719,184.565 176.105,159.808 
		234.491,135.051 176.105,159.808 256.663,187.233 176.105,159.808 95.547,132.382 176.105,159.808 148.68,240.367 176.105,159.808 
		203.531,79.25 176.105,159.808 224.415,230.641 176.105,159.808 127.795,88.976 176.105,159.808 105.273,208.116 176.105,159.808 
		246.938,111.499 176.105,159.808 194.764,225.393 176.105,159.808 157.447,94.226 176.105,159.808 110.522,178.468 
		176.105,159.808 241.688,141.15 176.105,159.808 244.361,191.017 176.105,159.808 107.849,128.599 176.105,159.808 
		144.896,228.064 176.105,159.808 207.314,91.552 	"/>
</g>
<g opacity="0.5" filter="url(#AI_GaussianBlur_7)">
	<circle fill="none" stroke="#FCE3E2" stroke-width="18" stroke-miterlimit="10" cx="242.333" cy="192.667" r="144"/>
</g>
<circle opacity="0.3" fill="none" stroke="#F9F2F2" stroke-miterlimit="10" enable-background="new    " cx="242.333" cy="192.667" r="144"/>
<circle opacity="0.5" fill="none" stroke="#F59494" stroke-miterlimit="10" enable-background="new    " cx="242.333" cy="192.667" r="145.8"/>
<g filter="url(#AI_GaussianBlur_7)">
	<circle fill="none" stroke="#F6D0AA" stroke-miterlimit="10" cx="176.001" cy="161.331" r="72"/>
</g>
<circle opacity="0.1" fill="none" stroke="#F6D0AA" stroke-miterlimit="10" enable-background="new    " cx="176.001" cy="161.331" r="72"/>
<g filter="url(#AI_GaussianBlur_4)">
	<circle fill="none" stroke="#F6D0AA" stroke-miterlimit="10" cx="121.001" cy="207.665" r="36"/>
</g>
</svg>
