<?xml version="1.0" encoding="utf-8"?>
<!-- Generator: Adobe Illustrator 16.0.0, SVG Export Plug-In . SVG Version: 6.00 Build 0)  -->
<!DOCTYPE svg PUBLIC "-//W3C//DTD SVG 1.1//EN" "http://www.w3.org/Graphics/SVG/1.1/DTD/svg11.dtd">
<svg version="1.1" id="Layer_1" xmlns="http://www.w3.org/2000/svg" xmlns:xlink="http://www.w3.org/1999/xlink" x="0px" y="0px"
	 width="623px" height="181.5px" viewBox="0 0 623 181.5" enable-background="new 0 0 623 181.5" xml:space="preserve">
<path id="i1" d="M202.026,79.318c-1.042-1.106-2.49-1.937-4.346-2.49c-1.855-0.553-4.281-0.83-7.275-0.83h-42.773
	c-3.125,0-5.664,0.293-7.617,0.879c-1.953,0.586-3.483,1.433-4.59,2.539c-1.107,1.107-1.855,2.523-2.246,4.248
	c-0.391,1.726-0.586,3.695-0.586,5.908v72.852c0,2.279,0.195,4.264,0.586,5.957c0.391,1.693,1.139,3.092,2.246,4.199
	c1.106,1.107,2.637,1.953,4.59,2.539c1.953,0.586,4.492,0.879,7.617,0.879h42.773c2.994,0,5.42-0.277,7.275-0.83
	s3.304-1.4,4.346-2.539c1.041-1.139,1.725-2.539,2.051-4.199c0.325-1.66,0.488-3.598,0.488-5.811V89.572
	c0-2.344-0.163-4.361-0.488-6.055C203.75,81.825,203.067,80.426,202.026,79.318z"/>
<path id="i1-dot" d="M145.776,57.053c2.93,2.93,6.38,5.258,10.352,6.982c3.971,1.726,8.203,2.588,12.695,2.588
	c4.427,0,8.609-0.862,12.549-2.588c3.938-1.725,7.373-4.053,10.303-6.982c2.93-2.929,5.257-6.363,6.982-10.303
	c1.725-3.938,2.588-8.121,2.588-12.549c0-4.492-0.863-8.724-2.588-12.695c-1.726-3.971-4.053-7.422-6.982-10.352
	c-2.929-2.93-6.364-5.257-10.303-6.982s-8.122-2.588-12.549-2.588c-4.492,0-8.725,0.863-12.695,2.588
	c-3.972,1.726-7.422,4.053-10.352,6.982c-2.93,2.929-5.258,6.381-6.982,10.352c-1.726,3.972-2.588,8.203-2.588,12.695
	c0,4.428,0.862,8.61,2.588,12.549C140.518,50.689,142.846,54.123,145.776,57.053z"/>
</svg>
