<?xml version="1.0" encoding="utf-8"?>
<!-- Generator: Adobe Illustrator 16.0.0, SVG Export Plug-In . SVG Version: 6.00 Build 0)  -->
<!DOCTYPE svg PUBLIC "-//W3C//DTD SVG 1.1//EN" "http://www.w3.org/Graphics/SVG/1.1/DTD/svg11.dtd">
<svg version="1.1" id="Layer_1" xmlns="http://www.w3.org/2000/svg" xmlns:xlink="http://www.w3.org/1999/xlink" x="0px" y="0px"
	 width="623px" height="181.5px" viewBox="0 0 623 181.5" enable-background="new 0 0 623 181.5" xml:space="preserve">
<path id="i2" d="M493.237,79.318c-1.041-1.106-2.49-1.937-4.348-2.49c-1.854-0.553-4.279-0.83-7.273-0.83h-42.773
	c-3.125,0-5.664,0.293-7.617,0.879c-1.951,0.586-3.48,1.433-4.59,2.539c-1.105,1.107-1.854,2.523-2.246,4.248
	c-0.391,1.726-0.586,3.695-0.586,5.908v72.852c0,2.279,0.195,4.264,0.586,5.957c0.393,1.693,1.141,3.092,2.246,4.199
	c1.107,1.107,2.639,1.953,4.59,2.539c1.953,0.586,4.492,0.879,7.617,0.879h42.773c2.994,0,5.42-0.277,7.273-0.83
	c1.855-0.553,3.307-1.4,4.348-2.539s1.725-2.539,2.051-4.199s0.488-3.598,0.488-5.811V89.572c0-2.344-0.162-4.361-0.488-6.055
	C494.962,81.825,494.278,80.426,493.237,79.318z"/>
<path id="i2-dot" d="M436.987,57.053c2.93,2.93,6.381,5.258,10.352,6.982c3.971,1.726,8.203,2.588,12.695,2.588
	c4.428,0,8.607-0.862,12.549-2.588c3.938-1.725,7.373-4.053,10.303-6.982c2.932-2.929,5.259-6.363,6.982-10.303
	c1.725-3.938,2.588-8.121,2.588-12.549c0-4.492-0.863-8.724-2.588-12.695c-1.727-3.971-4.053-7.422-6.982-10.352
	c-2.929-2.93-6.361-5.257-10.303-6.982c-3.939-1.725-8.121-2.588-12.549-2.588c-4.492,0-8.727,0.863-12.695,2.588
	c-3.971,1.726-7.422,4.053-10.352,6.982c-2.932,2.929-5.26,6.381-6.982,10.352c-1.725,3.972-2.588,8.203-2.588,12.695
	c0,4.428,0.863,8.61,2.588,12.549C431.729,50.689,434.058,54.123,436.987,57.053z"/>
</svg>
