<?xml version="1.0" encoding="utf-8"?>
<!-- Generator: Adobe Illustrator 16.0.0, SVG Export Plug-In . SVG Version: 6.00 Build 0)  -->
<!DOCTYPE svg PUBLIC "-//W3C//DTD SVG 1.1//EN" "http://www.w3.org/Graphics/SVG/1.1/DTD/svg11.dtd">
<svg version="1.1" id="Layer_1" xmlns="http://www.w3.org/2000/svg" xmlns:xlink="http://www.w3.org/1999/xlink" x="0px" y="0px"
	 width="623px" height="181.5px" viewBox="0 0 623 181.5" enable-background="new 0 0 623 181.5" xml:space="preserve">
<path id="l" d="M222.534,29.611c0-2.213,0.195-4.183,0.586-5.908c0.391-1.725,1.139-3.141,2.246-4.248
	c1.106-1.106,2.637-1.953,4.59-2.539s4.492-0.879,7.617-0.879h42.773c2.994,0,5.403,0.277,7.227,0.83
	c1.822,0.554,3.255,1.384,4.297,2.49c1.041,1.107,1.741,2.507,2.1,4.199c0.357,1.693,0.537,3.679,0.537,5.957v133.105
	c0,2.213-0.195,4.149-0.586,5.812c-0.391,1.66-1.107,3.062-2.148,4.198c-1.042,1.14-2.49,1.985-4.346,2.539
	c-1.856,0.554-4.281,0.83-7.275,0.83h-42.578c-3.125,0-5.664-0.293-7.617-0.879s-3.483-1.433-4.59-2.539
	c-1.107-1.106-1.855-2.506-2.246-4.199c-0.391-1.692-0.586-3.678-0.586-5.957L222.534,29.611L222.534,29.611z"/>
</svg>
