<?xml version="1.0" encoding="utf-8"?>
<!-- Generator: Adobe Illustrator 16.0.0, SVG Export Plug-In . SVG Version: 6.00 Build 0)  -->
<!DOCTYPE svg PUBLIC "-//W3C//DTD SVG 1.1//EN" "http://www.w3.org/Graphics/SVG/1.1/DTD/svg11.dtd">
<svg version="1.1" id="Layer_1" xmlns="http://www.w3.org/2000/svg" xmlns:xlink="http://www.w3.org/1999/xlink" x="0px" y="0px"
	 width="86.4px" height="86.4px" viewBox="0 0 86.4 86.4" enable-background="new 0 0 86.4 86.4" xml:space="preserve">
<g>
	<g>
	<path fill="#C02255" d="M46.925,7.2c-2.032,0-3.68,1.648-3.68,3.681c0,2.032,1.648,3.68,3.68,3.68h19.709l-26.849,26.85
		c-1.438,1.438-1.438,3.768,0,5.206c0.719,0.717,1.661,1.076,2.602,1.076c0.942,0,1.884-0.359,2.603-1.076l26.849-26.85v19.709
		c0,2.032,1.648,3.68,3.68,3.68s3.681-1.647,3.681-3.68V7.2H46.925z"/>
	</g>	
	<path fill="#BF2255" d="M75.52,49.756c-2.032,0-3.68-1.648-3.68-3.68v18.402c0,4.059-3.302,7.361-7.361,7.361H21.922
		c-4.059,0-7.361-3.302-7.361-7.361V21.922c0-4.059,3.302-7.361,7.361-7.361h18.402c-2.032,0-3.68-1.648-3.68-3.68
		c0-2.033,1.648-3.681,3.68-3.681H21.922C13.805,7.2,7.2,13.805,7.2,21.922v42.556c0,8.118,6.604,14.722,14.722,14.722h42.556
		c8.118,0,14.722-6.604,14.722-14.722V46.076C79.2,48.108,77.552,49.756,75.52,49.756z"/>
</g>
</svg>
