<?xml version="1.0" encoding="utf-8"?>
<!-- Generator: Adobe Illustrator 16.0.0, SVG Export Plug-In . SVG Version: 6.00 Build 0)  -->
<!DOCTYPE svg PUBLIC "-//W3C//DTD SVG 1.1//EN" "http://www.w3.org/Graphics/SVG/1.1/DTD/svg11.dtd">
<svg version="1.1" id="Layer_1" xmlns="http://www.w3.org/2000/svg" xmlns:xlink="http://www.w3.org/1999/xlink" x="0px" y="0px"
	 width="223.2px" height="223.2px" viewBox="0 0 223.2 223.2" enable-background="new 0 0 223.2 223.2" xml:space="preserve">
<g enable-background="new    ">
	<path fill="#F4906C" d="M12.18,153.54C6.459,140.219,3.6,126.241,3.6,111.6c0-14.641,2.859-28.62,8.58-41.939
		c5.719-13.32,13.398-24.801,23.04-34.44c9.64-9.64,21.12-17.32,34.44-23.04C82.98,6.459,96.959,3.6,111.6,3.6
		c14.641,0,28.62,2.859,41.939,8.58c13.319,5.72,24.799,13.4,34.438,23.04c9.64,9.64,17.319,21.12,23.041,34.44
		c5.719,13.32,8.58,27.299,8.58,41.94c0,14.641-2.861,28.619-8.578,41.939c-5.722,13.317-13.399,24.801-23.041,34.438
		c-9.644,9.64-21.119,17.319-34.438,23.039c-13.32,5.721-27.301,8.582-41.941,8.582c-14.641,0-28.62-2.858-41.939-8.58
		c-13.319-5.72-24.801-13.399-34.439-23.039C25.579,178.34,17.899,166.859,12.18,153.54z M20.1,73.02
		c-5.24,12.28-7.859,25.141-7.859,38.58c0,13.439,2.619,26.3,7.859,38.58c5.238,12.279,12.3,22.859,21.182,31.74
		c8.879,8.881,19.457,15.938,31.738,21.18c12.28,5.24,25.141,7.859,38.58,7.859c13.439,0,26.299-2.619,38.58-7.859
		c12.279-5.24,22.859-12.299,31.74-21.18s15.938-19.461,21.18-31.74c5.242-12.28,7.859-25.141,7.859-38.58
		c0-13.439-2.621-26.3-7.859-38.58c-5.238-12.279-12.299-22.859-21.18-31.74c-8.881-8.88-19.461-15.938-31.74-21.18
		c-12.281-5.24-25.141-7.859-38.58-7.859c-13.439,0-26.3,2.619-38.58,7.859c-12.281,5.24-22.859,12.3-31.738,21.18
		C32.4,50.161,25.338,60.741,20.1,73.02z M33.06,157.081C24.94,143.159,20.879,128,20.879,111.6c0-16.4,4.061-31.561,12.181-45.48
		c8.118-13.92,19.142-24.94,33.061-33.06S95.202,20.879,111.6,20.879c16.398,0,31.561,4.061,45.48,12.181
		c13.918,8.12,24.938,19.14,33.061,33.06c8.119,13.92,12.18,29.08,12.18,45.48c0,16.4-4.061,31.561-12.18,45.48
		C182.02,171,171,182.018,157.081,190.141c-13.922,8.121-29.082,12.18-45.48,12.18c-16.398,0-31.561-4.061-45.479-12.18
		C52.202,182.02,41.178,171,33.06,157.081z M36,79.68c-4.32,10.16-6.48,20.8-6.48,31.92c0,11.119,2.16,21.76,6.48,31.92
		s10.14,18.9,17.459,26.221c7.32,7.319,16.061,13.143,26.221,17.459c10.158,4.319,20.8,6.479,31.92,6.479
		c11.117,0,21.762-2.16,31.92-6.479c10.158-4.316,18.9-10.14,26.221-17.459c7.319-7.318,13.143-16.062,17.461-26.221
		c4.317-10.16,6.479-20.801,6.479-31.92c0-11.12-2.16-21.76-6.479-31.92c-4.32-10.16-10.142-18.9-17.461-26.221
		C162.422,46.14,153.68,40.319,143.52,36c-10.159-4.32-20.803-6.48-31.92-6.48c-11.12,0-21.762,2.16-31.92,6.48
		c-10.16,4.32-18.898,10.14-26.221,17.459C46.139,60.78,40.321,69.52,36,79.68z M48,148.439c-6.562-11.278-9.84-23.56-9.84-36.839
		S41.438,86.039,48,74.76C54.559,63.48,63.479,54.56,74.76,48c11.281-6.561,23.561-9.84,36.84-9.84
		c13.277,0,25.561,3.279,36.839,9.84c11.281,6.56,20.201,15.479,26.763,26.76c6.559,11.279,9.84,23.561,9.84,36.84
		s-3.281,25.561-9.84,36.839c-6.562,11.281-15.479,20.201-26.763,26.761c-11.278,6.561-23.562,9.842-36.839,9.842
		c-13.279,0-25.561-3.279-36.84-9.842C63.48,168.641,54.559,159.721,48,148.439z M55.5,79.08c-5.803,9.92-8.7,20.76-8.7,32.52
		c0,11.76,2.897,22.6,8.7,32.52c5.8,9.922,13.66,17.781,23.58,23.58c9.918,5.803,20.76,8.701,32.52,8.701
		c11.762,0,22.602-2.898,32.521-8.701c9.916-5.799,17.776-13.658,23.58-23.58c5.801-9.92,8.698-20.76,8.698-32.52
		c0-11.76-2.897-22.6-8.698-32.52c-5.804-9.92-13.662-17.78-23.58-23.58c-9.92-5.801-20.761-8.7-32.521-8.7
		c-11.76,0-22.602,2.899-32.52,8.7C69.161,61.3,61.3,69.161,55.5,79.08z M59.879,133.379c-2.959-6.92-4.439-14.182-4.439-21.779
		c0-7.6,1.48-14.859,4.439-21.779c2.959-6.921,6.961-12.9,12-17.939c5.041-5.04,11.021-9.04,17.941-12
		c6.918-2.961,14.178-4.44,21.778-4.44c7.6,0,14.859,1.479,21.779,4.44c6.918,2.96,12.899,6.96,17.938,12
		c5.041,5.039,9.041,11.02,12,17.939c2.959,6.92,4.438,14.18,4.438,21.779c0,7.6-1.479,14.859-4.438,21.779s-6.959,12.897-12,17.938
		c-5.039,5.039-11.021,9.039-17.938,12c-6.92,2.959-14.181,4.438-21.779,4.438c-7.603,0-14.86-1.479-21.778-4.438
		c-6.922-2.961-12.9-6.961-17.941-12C66.84,146.279,62.838,140.299,59.879,133.379z M78,78c-9.282,9.279-13.92,20.479-13.92,33.6
		s4.638,24.32,13.92,33.6c9.279,9.28,20.479,13.92,33.6,13.92c13.12,0,24.318-4.64,33.602-13.92
		c9.278-9.277,13.92-20.479,13.92-33.6s-4.642-24.32-13.92-33.6c-9.281-9.28-20.479-13.92-33.602-13.92S87.282,68.72,78,78z"/>
</g>
<g>
	<path fill="#A3B7EF" d="M78.464,125.577c-1.909-4.438-2.864-9.098-2.864-13.977s0.955-9.538,2.864-13.978
		c1.909-4.438,4.47-8.266,7.682-11.477c3.211-3.212,7.038-5.772,11.478-7.683c4.438-1.908,9.097-2.863,13.977-2.863
		c4.878,0,9.537,0.955,13.978,2.863c4.438,1.91,8.264,4.471,11.476,7.683c3.212,3.211,5.772,7.038,7.683,11.477
		c1.908,4.439,2.863,9.099,2.863,13.978s-0.955,9.538-2.863,13.977c-1.908,4.439-4.471,8.268-7.683,11.479
		c-3.212,3.212-7.038,5.771-11.476,7.682c-4.44,1.909-9.1,2.863-13.978,2.863c-4.88,0-9.54-0.954-13.977-2.863
		c-4.44-1.908-8.267-4.47-11.478-7.682C82.935,133.844,80.373,130.017,78.464,125.577z M81.464,98.896
		c-1.727,4.045-2.591,8.279-2.591,12.704c0,4.425,0.864,8.658,2.591,12.704c1.727,4.045,4.051,7.53,6.977,10.454
		c2.924,2.925,6.409,5.25,10.454,6.978c4.046,1.728,8.28,2.591,12.706,2.591c4.423,0,8.657-0.863,12.704-2.591
		c4.045-1.728,7.527-4.053,10.453-6.978c2.925-2.924,5.25-6.409,6.979-10.454c1.727-4.046,2.592-8.279,2.592-12.704
		c0-4.425-0.865-8.659-2.592-12.704c-1.729-4.046-4.054-7.53-6.979-10.455c-2.926-2.924-6.408-5.249-10.453-6.978
		c-4.047-1.727-8.281-2.59-12.704-2.59c-4.426,0-8.659,0.863-12.706,2.59c-4.045,1.729-7.53,4.054-10.454,6.978
		C85.516,91.366,83.191,94.851,81.464,98.896z M84.486,123.055c-1.561-3.637-2.34-7.454-2.34-11.454s0.78-7.817,2.34-11.454
		s3.652-6.766,6.273-9.387c2.621-2.62,5.75-4.711,9.386-6.272c3.637-1.561,7.455-2.341,11.456-2.341c4,0,7.817,0.78,11.454,2.341
		c3.636,1.562,6.765,3.652,9.386,6.272c2.621,2.621,4.712,5.75,6.272,9.387s2.342,7.454,2.342,11.454s-0.781,7.817-2.342,11.454
		c-1.562,3.637-3.651,6.766-6.272,9.387s-5.75,4.711-9.386,6.271c-3.637,1.562-7.455,2.342-11.454,2.342
		c-4,0-7.819-0.779-11.456-2.342c-3.635-1.562-6.765-3.65-9.386-6.271C88.138,129.821,86.047,126.691,84.486,123.055z
		 M87.486,101.441c-1.379,3.227-2.068,6.613-2.068,10.159c0,3.545,0.689,6.932,2.068,10.158c1.379,3.228,3.243,6.017,5.591,8.363
		c2.348,2.35,5.136,4.213,8.363,5.59c3.228,1.381,6.614,2.068,10.16,2.068c3.545,0,6.932-0.688,10.158-2.068
		c3.228-1.377,6.016-3.24,8.363-5.59c2.348-2.348,4.211-5.137,5.592-8.363c1.379-3.227,2.068-6.613,2.068-10.158
		c0-3.546-0.689-6.933-2.068-10.159c-1.381-3.227-3.244-6.016-5.592-8.363c-2.349-2.349-5.136-4.212-8.363-5.591
		c-3.227-1.379-6.613-2.068-10.158-2.068c-3.546,0-6.932,0.689-10.16,2.068c-3.227,1.379-6.015,3.242-8.363,5.591
		C90.729,95.426,88.865,98.215,87.486,101.441z M91.76,123.101c-2.045-3.517-3.068-7.349-3.068-11.5c0-4.152,1.023-7.983,3.068-11.5
		c2.045-3.515,4.825-6.296,8.34-8.341c3.515-2.046,7.348-3.068,11.5-3.068c4.15,0,7.982,1.022,11.499,3.068
		c3.517,2.045,6.296,4.826,8.341,8.341c2.044,3.517,3.068,7.348,3.068,11.5c0,4.151-1.023,7.983-3.068,11.5
		s-4.826,6.295-8.341,8.341c-3.517,2.045-7.349,3.068-11.499,3.068c-4.153,0-7.985-1.023-11.5-3.068
		C96.584,129.396,93.805,126.616,91.76,123.101z M97.714,97.737c-3.833,3.849-5.75,8.47-5.75,13.863
		c0,5.395,1.916,10.016,5.75,13.863c3.833,3.849,8.461,5.771,13.887,5.771c5.424,0,10.052-1.924,13.886-5.771
		c3.833-3.848,5.75-8.469,5.75-13.863c0-5.394-1.916-10.015-5.75-13.863c-3.834-3.849-8.462-5.773-13.886-5.773
		C106.175,91.964,101.547,93.889,97.714,97.737z M100.032,123.168c-3.197-3.196-4.795-7.053-4.795-11.567
		c0-4.515,1.598-8.37,4.795-11.567c3.197-3.197,7.053-4.797,11.569-4.797c4.515,0,8.37,1.6,11.567,4.797
		c3.197,3.197,4.795,7.052,4.795,11.567c0,4.515-1.598,8.371-4.795,11.567c-3.198,3.197-7.053,4.795-11.567,4.795
		C107.084,127.963,103.229,126.366,100.032,123.168z M102.35,102.351c-2.562,2.562-3.84,5.644-3.84,9.25
		c0,3.606,1.278,6.688,3.84,9.25c2.561,2.562,5.643,3.841,9.25,3.841c3.605,0,6.688-1.279,9.249-3.841s3.841-5.644,3.841-9.25
		c0-3.606-1.281-6.688-3.841-9.25c-2.562-2.561-5.644-3.841-9.249-3.841C107.993,98.51,104.911,99.79,102.35,102.351z"/>
</g>
</svg>
