<?xml version="1.0" encoding="utf-8"?>
<!-- Generator: Adobe Illustrator 16.0.0, SVG Export Plug-In . SVG Version: 6.00 Build 0)  -->
<!DOCTYPE svg PUBLIC "-//W3C//DTD SVG 1.1//EN" "http://www.w3.org/Graphics/SVG/1.1/DTD/svg11.dtd">
<svg version="1.1" id="Layer_1" xmlns="http://www.w3.org/2000/svg" xmlns:xlink="http://www.w3.org/1999/xlink" x="0px" y="0px"
	 width="623px" height="181.5px" viewBox="0 0 623 181.5" enable-background="new 0 0 623 181.5" xml:space="preserve">
<path id="s" d="M80.346,72.58c4.166,0,8.333,0.244,12.5,0.732c4.166,0.488,8.121,1.123,11.865,1.904
	c3.743,0.781,7.161,1.645,10.254,2.588c3.092,0.944,5.615,1.872,7.568,2.783c0.325,0.131,0.667,0.326,1.025,0.586
	c0.357,0.261,0.537,0.749,0.537,1.465c0,0.195-0.033,0.456-0.098,0.781c-0.065,0.326-0.131,0.651-0.195,0.977l-1.172,5.762
	c-0.131,0.781-0.31,1.254-0.537,1.416c-0.229,0.162-0.439,0.244-0.635,0.244c-0.326,0-0.944-0.098-1.855-0.293
	c-0.912-0.195-1.889-0.293-2.93-0.293c-3.711,0-6.641,0.993-8.789,2.979c-2.148,1.986-3.516,5.453-4.102,10.4l-5.469,45.604
	c-0.521,4.037-1.872,7.812-4.053,11.328c-2.182,3.518-5.322,6.605-9.424,9.275c-4.102,2.672-9.164,4.771-15.186,6.301
	c-6.022,1.527-13.07,2.295-21.143,2.295c-5.078,0-10.026-0.312-14.844-0.93c-4.818-0.618-9.262-1.365-13.33-2.244
	c-4.069-0.881-7.617-1.76-10.645-2.639s-5.29-1.578-6.787-2.1c-0.521-0.131-0.928-0.309-1.221-0.537s-0.439-0.602-0.439-1.123
	c0-0.26,0.034-0.553,0.098-0.879c0.065-0.326,0.163-0.717,0.293-1.172l1.172-5.469c0.13-0.521,0.357-0.943,0.684-1.271
	c0.325-0.325,0.911-0.487,1.758-0.487c2.148,0,4.312-0.113,6.494-0.342c2.181-0.229,4.199-0.83,6.055-1.809s3.482-2.477,4.883-4.492
	c1.399-2.018,2.359-4.85,2.881-8.495l6.836-47.069c0.716-4.947,2.539-9.083,5.469-12.402c2.93-3.32,6.56-5.971,10.89-7.957
	c4.329-1.985,9.229-3.385,14.697-4.199C68.92,72.987,74.551,72.58,80.346,72.58z"/>
</svg>
