<?xml version="1.0" encoding="utf-8"?>
<!-- Generator: Adobe Illustrator 16.0.0, SVG Export Plug-In . SVG Version: 6.00 Build 0)  -->
<!DOCTYPE svg PUBLIC "-//W3C//DTD SVG 1.1//EN" "http://www.w3.org/Graphics/SVG/1.1/DTD/svg11.dtd">
<svg version="1.1" id="Layer_1" xmlns="http://www.w3.org/2000/svg" xmlns:xlink="http://www.w3.org/1999/xlink" x="0px" y="0px"
	 width="623px" height="181.5px" viewBox="0 0 623 181.5" enable-background="new 0 0 623 181.5" xml:space="preserve">
<path id="s" d="M80.346,72.58c4.166,0,8.333,0.244,12.5,0.732c4.166,0.488,8.121,1.123,11.865,1.904
	c3.743,0.781,7.161,1.645,10.254,2.588c3.092,0.944,5.615,1.872,7.568,2.783c0.325,0.131,0.667,0.326,1.025,0.586
	c0.357,0.261,0.537,0.749,0.537,1.465c0,0.195-0.033,0.456-0.098,0.781c-0.065,0.326-0.131,0.651-0.195,0.977l-1.172,5.762
	c-0.131,0.781-0.31,1.254-0.537,1.416c-0.229,0.162-0.439,0.244-0.635,0.244c-0.326,0-0.944-0.098-1.855-0.293
	c-0.912-0.195-1.889-0.293-2.93-0.293c-3.711,0-6.641,0.993-8.789,2.979c-2.148,1.986-3.516,5.453-4.102,10.4l-5.469,45.604
	c-0.521,4.037-1.872,7.812-4.053,11.328c-2.182,3.517-5.322,6.606-9.424,9.276c-4.102,2.671-9.164,4.771-15.186,6.3
	c-6.022,1.528-13.07,2.295-21.143,2.295c-5.078,0-10.026-0.312-14.844-0.929c-4.818-0.619-9.262-1.366-13.33-2.245
	c-4.069-0.88-7.617-1.759-10.645-2.638s-5.29-1.578-6.787-2.1c-0.521-0.131-0.928-0.309-1.221-0.537
	c-0.293-0.228-0.439-0.602-0.439-1.123c0-0.26,0.034-0.553,0.098-0.879c0.065-0.326,0.163-0.717,0.293-1.172l1.172-5.469
	c0.13-0.521,0.357-0.943,0.684-1.27c0.325-0.326,0.911-0.488,1.758-0.488c2.148,0,4.312-0.113,6.494-0.342
	c2.181-0.229,4.199-0.83,6.055-1.808s3.482-2.476,4.883-4.492c1.399-2.018,2.359-4.85,2.881-8.495l6.836-47.07
	c0.716-4.947,2.539-9.083,5.469-12.402c2.93-3.32,6.56-5.971,10.89-7.957c4.329-1.985,9.229-3.385,14.697-4.199
	C68.92,72.987,74.551,72.58,80.346,72.58z"/>
<path id="i1" d="M202.026,79.318c-1.042-1.106-2.49-1.937-4.346-2.49c-1.855-0.553-4.281-0.83-7.275-0.83h-42.773
	c-3.125,0-5.664,0.293-7.617,0.879c-1.953,0.586-3.483,1.433-4.59,2.539c-1.107,1.107-1.855,2.523-2.246,4.248
	c-0.391,1.726-0.586,3.695-0.586,5.908v72.852c0,2.279,0.195,4.264,0.586,5.957c0.391,1.693,1.139,3.092,2.246,4.199
	c1.106,1.107,2.637,1.953,4.59,2.539c1.953,0.586,4.492,0.879,7.617,0.879h42.773c2.994,0,5.42-0.277,7.275-0.83
	s3.304-1.4,4.346-2.539c1.041-1.139,1.725-2.539,2.051-4.199c0.325-1.66,0.488-3.598,0.488-5.811V89.572
	c0-2.344-0.163-4.361-0.488-6.055C203.75,81.825,203.067,80.426,202.026,79.318z"/>
<path id="l" d="M222.534,29.611c0-2.213,0.195-4.183,0.586-5.908c0.391-1.725,1.139-3.141,2.246-4.248
	c1.106-1.106,2.637-1.953,4.59-2.539s4.492-0.879,7.617-0.879h42.773c2.994,0,5.403,0.277,7.227,0.83
	c1.822,0.554,3.255,1.384,4.297,2.49c1.041,1.107,1.741,2.507,2.1,4.199c0.357,1.693,0.537,3.679,0.537,5.957v133.105
	c0,2.213-0.195,4.149-0.586,5.812c-0.391,1.66-1.107,3.061-2.148,4.198c-1.042,1.14-2.49,1.986-4.346,2.539
	c-1.856,0.554-4.281,0.83-7.275,0.83h-42.578c-3.125,0-5.664-0.293-7.617-0.879s-3.483-1.433-4.59-2.539
	c-1.107-1.106-1.855-2.506-2.246-4.199c-0.391-1.692-0.586-3.678-0.586-5.957L222.534,29.611L222.534,29.611z"/>
<path id="v" d="M381.909,118.381l13.573-36.621c0.587-1.692,1.222-3.076,1.904-4.15c0.684-1.074,2.066-1.611,4.15-1.611h10.352
	c1.89,0,2.832,0.554,2.832,1.66c0,0.717-0.356,1.889-1.074,3.516l-37.401,88.185c-0.912,2.213-1.938,3.873-3.076,4.979
	s-2.75,1.66-4.834,1.66h-15.431c-1.366,0-2.506-0.211-3.418-0.635c-0.911-0.425-1.676-0.962-2.295-1.611s-1.123-1.353-1.514-2.101
	s-0.717-1.448-0.977-2.1l-40.235-85.352c-0.586-1.236-0.879-2.376-0.879-3.418c0-1.692,0.618-2.913,1.855-3.662
	c1.236-0.748,2.506-1.123,3.809-1.123h47.657c1.627,0,2.994,0.065,4.102,0.195c1.107,0.131,2.018,0.375,2.734,0.732
	c0.717,0.358,1.303,0.798,1.758,1.318c0.455,0.521,0.846,1.172,1.172,1.953L381.909,118.381z"/>
<path id="i2" d="M493.237,79.318c-1.041-1.106-2.49-1.937-4.347-2.49c-1.854-0.553-4.28-0.83-7.274-0.83h-42.773
	c-3.125,0-5.664,0.293-7.617,0.879c-1.952,0.586-3.481,1.433-4.59,2.539c-1.106,1.107-1.854,2.523-2.246,4.248
	c-0.391,1.726-0.586,3.695-0.586,5.908v72.852c0,2.279,0.195,4.264,0.586,5.957c0.392,1.693,1.14,3.092,2.246,4.199
	c1.107,1.107,2.638,1.953,4.59,2.539c1.953,0.586,4.492,0.879,7.617,0.879h42.773c2.994,0,5.42-0.277,7.274-0.83
	c1.855-0.553,3.306-1.4,4.347-2.539s1.725-2.539,2.051-4.199s0.488-3.598,0.488-5.811V89.572c0-2.344-0.162-4.361-0.488-6.055
	C494.962,81.825,494.278,80.426,493.237,79.318z"/>
<path id="a" d="M554.565,175.998c-3.517,0-7.048-0.229-10.597-0.684s-6.934-1.188-10.156-2.197c-3.222-1.01-6.233-2.328-9.032-3.955
	c-2.8-1.627-5.226-3.646-7.275-6.055c-2.05-2.409-3.662-5.24-4.834-8.496s-1.758-6.998-1.758-11.23
	c0-5.664,1.074-10.514,3.223-14.551c2.149-4.037,5.029-7.389,8.644-10.059c3.612-2.67,7.764-4.721,12.451-6.152
	s9.536-2.344,14.551-2.734v-6.738c0-2.539-0.326-4.557-0.978-6.055c-0.649-1.496-1.479-2.619-2.489-3.369
	c-1.011-0.748-2.115-1.236-3.32-1.465s-2.359-0.342-3.467-0.342c-1.304,0-2.687,0.195-4.15,0.586s-2.881,0.863-4.248,1.416
	c-1.367,0.555-2.67,1.156-3.906,1.807c-1.235,0.651-2.278,1.237-3.125,1.758c-0.391,0.262-0.748,0.488-1.073,0.685
	c-0.326,0.196-0.65,0.293-0.978,0.293c-0.586,0-1.139-0.423-1.66-1.271l-3.319-5.272c-0.326-0.455-0.488-0.943-0.488-1.465
	c0-0.521,0.211-0.977,0.635-1.367s0.83-0.716,1.222-0.977c2.147-1.497,4.883-3.027,8.202-4.59c3.32-1.563,7.048-2.962,11.183-4.199
	c4.135-1.236,8.608-2.246,13.428-3.027c4.819-0.781,9.799-1.172,14.941-1.172c4.883,0,9.651,0.163,14.307,0.488
	c4.654,0.326,9.049,1.025,13.184,2.1c4.136,1.075,7.91,2.604,11.328,4.59c3.418,1.986,6.381,4.606,8.888,7.861
	c2.506,3.256,4.442,7.26,5.811,12.012c1.367,4.753,2.051,10.449,2.051,17.09v43.556c0,2.147-0.194,4.053-0.586,5.713
	c-0.391,1.66-1.139,3.043-2.246,4.15c-1.106,1.106-2.637,1.938-4.59,2.489s-4.492,0.83-7.617,0.83L554.565,175.998L554.565,175.998z
	 M549.78,122.287c-4.688,0-8.627,0.586-11.816,1.758c-3.188,1.172-5.762,2.734-7.715,4.688c-1.953,1.955-3.354,4.216-4.199,6.787
	c-0.845,2.572-1.27,5.226-1.27,7.959c0,2.734,0.424,5.322,1.27,7.765c0.847,2.442,2.246,4.573,4.199,6.396s4.525,3.256,7.715,4.297
	c3.19,1.041,7.129,1.562,11.816,1.562V122.287z"/>
<path id="i1-dot" d="M145.776,57.053c2.93,2.93,6.38,5.258,10.352,6.982c3.971,1.726,8.203,2.588,12.695,2.588
	c4.427,0,8.609-0.862,12.549-2.588c3.938-1.725,7.373-4.053,10.303-6.982c2.93-2.929,5.257-6.363,6.982-10.303
	c1.725-3.938,2.588-8.121,2.588-12.549c0-4.492-0.863-8.724-2.588-12.695c-1.726-3.971-4.053-7.422-6.982-10.352
	c-2.929-2.93-6.364-5.257-10.303-6.982s-8.122-2.588-12.549-2.588c-4.492,0-8.725,0.863-12.695,2.588
	c-3.972,1.726-7.422,4.053-10.352,6.982c-2.93,2.929-5.258,6.381-6.982,10.352c-1.726,3.972-2.588,8.203-2.588,12.695
	c0,4.428,0.862,8.61,2.588,12.549C140.518,50.689,142.846,54.123,145.776,57.053z"/>
<path id="i2-dot" d="M436.987,57.053c2.93,2.93,6.381,5.258,10.352,6.982c3.971,1.726,8.203,2.588,12.695,2.588
	c4.428,0,8.608-0.862,12.549-2.588c3.938-1.725,7.373-4.053,10.303-6.982c2.931-2.929,5.259-6.363,6.982-10.303
	c1.725-3.938,2.588-8.121,2.588-12.549c0-4.492-0.863-8.724-2.588-12.695c-1.726-3.971-4.053-7.422-6.982-10.352
	c-2.929-2.93-6.362-5.257-10.303-6.982c-3.939-1.725-8.121-2.588-12.549-2.588c-4.492,0-8.726,0.863-12.695,2.588
	c-3.971,1.726-7.422,4.053-10.352,6.982c-2.931,2.929-5.259,6.381-6.982,10.352c-1.725,3.972-2.588,8.203-2.588,12.695
	c0,4.428,0.863,8.61,2.588,12.549C431.729,50.689,434.058,54.123,436.987,57.053z"/>
<path id="i1-dot_1_" fill="#FC0303" d="M41.791,148.947c2.93,2.93,6.38,5.258,10.352,6.982s8.203,2.588,12.695,2.588
	c4.427,0,8.609-0.863,12.549-2.588c3.938-1.725,7.373-4.053,10.303-6.982c2.931-2.93,5.258-6.363,6.982-10.303
	c1.725-3.938,2.588-8.121,2.588-12.549c0-4.492-0.863-8.725-2.588-12.695c-1.726-3.971-4.053-7.422-6.982-10.352
	c-2.929-2.93-6.363-5.258-10.303-6.982c-3.938-1.725-8.122-2.588-12.549-2.588c-4.492,0-8.725,0.863-12.695,2.588
	c-3.972,1.727-7.422,4.053-10.352,6.982c-2.93,2.928-5.258,6.381-6.982,10.352c-1.726,3.973-2.588,8.203-2.588,12.695
	c0,4.428,0.862,8.609,2.588,12.549C36.533,142.584,38.861,146.018,41.791,148.947z"/>
<path id="i1-dot_2_" fill="#FC0303" d="M142.108,148.947c2.931,2.93,6.381,5.258,10.353,6.982c3.971,1.726,8.203,2.588,12.695,2.588
	c4.427,0,8.608-0.862,12.549-2.588c3.938-1.725,7.373-4.053,10.303-6.982c2.93-2.929,5.257-6.363,6.982-10.303
	c1.725-3.938,2.588-8.121,2.588-12.549c0-4.492-0.863-8.725-2.588-12.695c-1.727-3.971-4.054-7.422-6.982-10.352
	s-6.364-5.258-10.303-6.982c-3.939-1.725-8.122-2.588-12.549-2.588c-4.492,0-8.726,0.863-12.695,2.588
	c-3.973,1.727-7.422,4.053-10.353,6.982c-2.93,2.929-5.258,6.381-6.981,10.352c-1.727,3.973-2.588,8.203-2.588,12.695
	c0,4.428,0.861,8.609,2.588,12.549C136.851,142.584,139.179,146.018,142.108,148.947z"/>
<path id="i1-dot_3_" fill="#FC0303" d="M242.428,148.947c2.93,2.93,6.38,5.258,10.352,6.982c3.971,1.725,8.203,2.588,12.695,2.588
	c4.427,0,8.609-0.863,12.549-2.588c3.938-1.725,7.373-4.053,10.303-6.982c2.93-2.93,5.257-6.363,6.982-10.303
	c1.725-3.938,2.588-8.121,2.588-12.549c0-4.492-0.863-8.725-2.588-12.695c-1.726-3.971-4.053-7.422-6.982-10.352
	c-2.929-2.93-6.364-5.258-10.303-6.982s-8.122-2.588-12.549-2.588c-4.492,0-8.725,0.863-12.695,2.588
	c-3.972,1.727-7.422,4.053-10.352,6.982c-2.93,2.929-5.258,6.381-6.982,10.352c-1.726,3.973-2.588,8.203-2.588,12.695
	c0,4.428,0.862,8.609,2.588,12.549C237.17,142.584,239.499,146.018,242.428,148.947z"/>
<path id="i1-dot_4_" fill="#FC0303" d="M342.746,148.947c2.932,2.93,6.381,5.258,10.354,6.982c3.971,1.727,8.203,2.588,12.695,2.588
	c4.426,0,8.607-0.861,12.549-2.588c3.938-1.725,7.373-4.053,10.303-6.982c2.93-2.928,5.256-6.363,6.982-10.303
	c1.725-3.938,2.588-8.121,2.588-12.549c0-4.492-0.863-8.725-2.588-12.695c-1.727-3.971-4.055-7.422-6.982-10.352
	c-2.93-2.93-6.365-5.258-10.303-6.982c-3.939-1.725-8.123-2.588-12.549-2.588c-4.492,0-8.727,0.863-12.695,2.588
	c-3.973,1.727-7.422,4.053-10.354,6.982c-2.93,2.93-5.258,6.381-6.98,10.352c-1.727,3.973-2.588,8.203-2.588,12.695
	c0,4.428,0.861,8.609,2.588,12.549C337.488,142.584,339.816,146.018,342.746,148.947z"/>
<path id="i1-dot_5_" fill="#FC0303" d="M443.065,148.947c2.931,2.93,6.381,5.258,10.353,6.982c3.972,1.726,8.203,2.588,12.695,2.588
	c4.427,0,8.608-0.862,12.549-2.588c3.938-1.725,7.373-4.053,10.303-6.982c2.931-2.929,5.257-6.363,6.982-10.303
	c1.725-3.938,2.588-8.121,2.588-12.549c0-4.492-0.863-8.725-2.588-12.695c-1.726-3.971-4.054-7.422-6.982-10.352
	s-6.364-5.258-10.303-6.982s-8.122-2.588-12.549-2.588c-4.492,0-8.726,0.863-12.695,2.588c-3.972,1.727-7.422,4.053-10.353,6.982
	c-2.93,2.929-5.258,6.381-6.981,10.352c-1.726,3.973-2.588,8.203-2.588,12.695c0,4.428,0.862,8.609,2.588,12.549
	C437.808,142.584,440.136,146.018,443.065,148.947z"/>
<path id="i1-dot_6_" fill="#FC0303" d="M543.385,148.947c2.931,2.93,6.381,5.258,10.353,6.982c3.972,1.726,8.203,2.588,12.695,2.588
	c4.427,0,8.608-0.862,12.549-2.588c3.938-1.725,7.373-4.053,10.303-6.982c2.931-2.929,5.257-6.363,6.982-10.303
	c1.725-3.938,2.588-8.121,2.588-12.549c0-4.492-0.863-8.725-2.588-12.695c-1.726-3.971-4.054-7.422-6.982-10.352
	s-6.364-5.258-10.303-6.982s-8.122-2.588-12.549-2.588c-4.492,0-8.726,0.863-12.695,2.588c-3.972,1.727-7.422,4.053-10.353,6.982
	c-2.93,2.929-5.258,6.381-6.981,10.352c-1.726,3.973-2.588,8.203-2.588,12.695c0,4.428,0.862,8.609,2.588,12.549
	C538.127,142.584,540.455,146.018,543.385,148.947z"/>
<path id="i1-dot_7_" fill="#FC0303" d="M142.108,148.947c2.931,2.93,6.381,5.258,10.353,6.982c3.971,1.726,8.203,2.588,12.695,2.588
	c4.427,0,8.608-0.862,12.549-2.588c3.938-1.725,7.373-4.053,10.303-6.982c2.93-2.929,5.257-6.363,6.982-10.303
	c1.725-3.938,2.588-8.121,2.588-12.549c0-4.492-0.863-8.725-2.588-12.695c-1.727-3.971-4.054-7.422-6.982-10.352
	s-6.364-5.258-10.303-6.982c-3.939-1.725-8.122-2.588-12.549-2.588c-4.492,0-8.726,0.863-12.695,2.588
	c-3.973,1.727-7.422,4.053-10.353,6.982c-2.93,2.929-5.258,6.381-6.981,10.352c-1.727,3.973-2.588,8.203-2.588,12.695
	c0,4.428,0.861,8.609,2.588,12.549C136.851,142.584,139.179,146.018,142.108,148.947z"/>
<path id="i1-dot_8_" fill="#FC0303" d="M443.065,148.947c2.931,2.93,6.381,5.258,10.353,6.982c3.972,1.726,8.203,2.588,12.695,2.588
	c4.427,0,8.608-0.862,12.549-2.588c3.938-1.725,7.373-4.053,10.303-6.982c2.931-2.929,5.257-6.363,6.982-10.303
	c1.725-3.938,2.588-8.121,2.588-12.549c0-4.492-0.863-8.725-2.588-12.695c-1.726-3.971-4.054-7.422-6.982-10.352
	s-6.364-5.258-10.303-6.982s-8.122-2.588-12.549-2.588c-4.492,0-8.726,0.863-12.695,2.588c-3.972,1.727-7.422,4.053-10.353,6.982
	c-2.93,2.929-5.258,6.381-6.981,10.352c-1.726,3.973-2.588,8.203-2.588,12.695c0,4.428,0.862,8.609,2.588,12.549
	C437.808,142.584,440.136,146.018,443.065,148.947z"/>
</svg>
