<?xml version="1.0" encoding="utf-8"?>
<!-- Generator: Adobe Illustrator 16.0.0, SVG Export Plug-In . SVG Version: 6.00 Build 0)  -->
<!DOCTYPE svg PUBLIC "-//W3C//DTD SVG 1.1//EN" "http://www.w3.org/Graphics/SVG/1.1/DTD/svg11.dtd">
<svg version="1.1" id="Layer_1" xmlns="http://www.w3.org/2000/svg" xmlns:xlink="http://www.w3.org/1999/xlink" x="0px" y="0px"
	 width="18px" height="18px" viewBox="0 0 18 18" enable-background="new 0 0 18 18" xml:space="preserve">
<polygon fill="#262B3A" points="24.234,0.686 25.347,2.941 27.835,3.301 26.033,5.057 26.46,7.533 24.234,6.363 22.011,7.533 
	22.436,5.057 20.636,3.301 23.122,2.941 "/>
<polygon fill="#262B3A" points="23.137,7.727 24.119,10.492 26.771,9.232 25.51,11.881 28.275,12.863 25.51,13.848 26.771,16.496 
	24.119,15.236 23.137,18 22.154,15.236 19.504,16.496 20.764,13.848 18,12.863 20.764,11.881 19.504,9.232 22.154,10.492 "/>
<polygon fill="#262B3A" points="28.625,0.594 29.409,2.712 31.289,1.459 30.678,3.634 32.935,3.725 31.163,5.126 32.935,6.525 
	30.678,6.616 31.289,8.792 29.409,7.539 28.625,9.656 27.841,7.539 25.961,8.792 26.572,6.616 24.315,6.525 26.088,5.126 
	24.315,3.725 26.572,3.634 25.961,1.459 27.841,2.712 "/>
<polygon fill="#575367" stroke="#262B3A" stroke-width="0.2" stroke-miterlimit="10" points="9,6.062 9.629,7.48 11.077,6.923 
	10.52,8.371 11.938,9 10.52,9.629 11.077,11.077 9.629,10.52 9,11.938 8.371,10.52 6.923,11.077 7.48,9.629 6.062,9 7.48,8.371 
	6.923,6.923 8.371,7.48 "/>
</svg>
