<?xml version="1.0" encoding="utf-8"?>
<!-- Generator: Adobe Illustrator 16.0.0, SVG Export Plug-In . SVG Version: 6.00 Build 0)  -->
<!DOCTYPE svg PUBLIC "-//W3C//DTD SVG 1.1//EN" "http://www.w3.org/Graphics/SVG/1.1/DTD/svg11.dtd">
<svg version="1.1" id="Layer_1" xmlns="http://www.w3.org/2000/svg" xmlns:xlink="http://www.w3.org/1999/xlink" x="0px" y="0px"
	 width="623px" height="181.5px" viewBox="0 0 623 181.5" enable-background="new 0 0 623 181.5" xml:space="preserve">
<path id="v" d="M381.909,118.381l13.573-36.621c0.587-1.692,1.222-3.076,1.903-4.15c0.685-1.074,2.066-1.611,4.15-1.611h10.352
	c1.891,0,2.832,0.554,2.832,1.66c0,0.717-0.355,1.889-1.074,3.516l-37.4,88.185c-0.912,2.214-1.938,3.873-3.076,4.979
	s-2.75,1.66-4.834,1.66h-15.431c-1.366,0-2.506-0.211-3.418-0.635c-0.911-0.425-1.676-0.962-2.295-1.611s-1.123-1.353-1.515-2.101
	c-0.391-0.748-0.717-1.448-0.977-2.101L304.465,84.2c-0.586-1.236-0.879-2.376-0.879-3.418c0-1.692,0.618-2.913,1.855-3.662
	c1.236-0.748,2.506-1.123,3.809-1.123h47.657c1.627,0,2.993,0.065,4.102,0.195c1.107,0.131,2.019,0.375,2.734,0.732
	c0.717,0.358,1.303,0.798,1.758,1.318c0.455,0.521,0.847,1.172,1.172,1.953L381.909,118.381z"/>
</svg>
