<?xml version="1.0" encoding="utf-8"?>
<!-- Generator: Adobe Illustrator 16.0.0, SVG Export Plug-In . SVG Version: 6.00 Build 0)  -->
<!DOCTYPE svg PUBLIC "-//W3C//DTD SVG 1.1//EN" "http://www.w3.org/Graphics/SVG/1.1/DTD/svg11.dtd">
<svg version="1.1" id="Layer_1" xmlns="http://www.w3.org/2000/svg" xmlns:xlink="http://www.w3.org/1999/xlink" x="0px" y="0px"
	 width="1556px" height="1236px" viewBox="228.5 392.5 1556 1236" enable-background="new 228.5 392.5 1556 1236"
	 xml:space="preserve">
<g id="Layer_x0020_1">
	<path fill="#300017" d="M1670.527,552.412c-30.375-27.574-68.845-45.658-110.918-50.307
		c-91.447-10.235-183.724-15.388-276.306-17.971c-91.987-2.565-184.37-2.565-276.547-2.512c-92.164-0.054-184.54-0.054-276.54,2.512
		c-92.593,2.583-184.896,7.735-276.395,17.971c-42.033,4.651-80.486,22.743-110.834,50.329
		c-30.155,27.408-52.311,64.219-62.002,106.533c-13.085,56.72-19.703,115.898-23.047,175.445
		c-3.356,59.798-3.44,118.839-3.44,176.155c0,57.241,0.001,116.205,3.278,176.039c3.263,59.52,9.801,118.696,22.893,175.427
		c9.749,42.331,31.915,79.152,62.067,106.56c30.33,27.57,68.745,45.652,110.767,50.304c91.51,10.233,183.813,15.386,276.406,17.968
		c91.999,2.565,184.375,2.565,276.553,2.512c92.218,0.054,184.593,0.054,276.578-2.512c92.58-2.582,184.856-7.734,276.356-17.968
		c42.013-4.651,80.42-22.728,110.763-50.289c30.168-27.405,52.364-64.23,62.178-106.574
		c13.034-56.732,19.574-115.909,22.848-175.426c3.23-58.693,3.258-118.234,3.253-176.039h0.062v-2.902h-0.062
		c0.002-114.85,0.002-236.492-25.782-348.698C1722.906,616.636,1700.716,579.818,1670.527,552.412L1670.527,552.412z
		 M800.623,1238.933V752.187v-26.33l23.375,12.205c70.804,36.967,141.403,73.807,212.066,110.68
		c85.008,44.357,170.117,88.77,255.803,133.518l27.168,14.189l-27.23,14.123l-233.935,121.313
		c-77.865,40.368-155.732,80.727-233.935,121.235l-23.312,12.076V1238.933L800.623,1238.933z"/>
</g>
<rect fill="none" width="2048" height="2048"/>
</svg>
